<svg xmlns="http://www.w3.org/2000/svg" version="1.1" xmlns:xlink="http://www.w3.org/1999/xlink" xmlns:svgjs="http://svgjs.dev/svgjs" width="2000" height="2250" viewBox="0 0 2000 2250"><g transform="matrix(1,0,0,1,0,0)"><svg viewBox="0 0 320 360" data-background-color="#ffffff" preserveAspectRatio="xMidYMid meet" height="2250" width="2000" xmlns="http://www.w3.org/2000/svg" xmlns:xlink="http://www.w3.org/1999/xlink"><g id="tight-bounds" transform="matrix(1,0,0,1,0,0)"><svg viewBox="0 0 320 360" height="360" width="320"><g><svg></svg></g><g><svg viewBox="0 0 320 360" height="360" width="320"><g><path xmlns="http://www.w3.org/2000/svg" d="M219.58 41.008c0.707 0 6.365 2.829 9.547 3.89-1.061 0.354-3.536-0.707-6.365-1.768 0.707 0 2.122 0.354 3.536 1.06-0.707-0.707-6.011-2.475-6.718-3.182M166.895 30.047c1.061-0.354 13.436 1.414 19.094 1.768 0.354-0.354-0.707-0.354-2.122-0.707 1.768-0.354 5.304 0.707 7.779 1.06-7.425 0.354-15.558-1.768-22.629-1.06-2.475 0-0.707-0.707-2.122-1.061M156.641 30.047c6.365 0 11.315 0 2.121 0.707-1.061-0.354-2.475-0.354-2.121-0.707M256.707 59.395c0.707 0 3.536 3.182 4.95 4.243-0.354 0.354-3.182-2.475-4.596-3.536 0.354 0.354 0 0-0.354-0.707M249.635 54.798c-2.829-2.475-3.889-2.475-4.243-3.889 2.475 1.414 4.243 2.829 4.243 3.889M204.022 32.522c0.354-0.354 1.061 0.354 2.829 0.707-2.122-0.354-1.768 0-1.061 0.707-2.475-0.354-3.182-0.707-2.475-1.414 1.414 0.707 1.768 0.354 0.707 0M103.602 36.765c0-0.354 1.414-1.061 2.475-1.414-1.061 0.707-0.707 1.061 1.061 0.353 0 0.354-2.122 1.061-3.536 1.768 0.707-0.354 1.414-1.414 0-0.707M211.094 28.986c-1.061 0.354-4.95-1.768-8.84-2.475-2.122-0.707 8.486 1.768 8.84 2.475M2.475 203.66c2.122 8.84 0.707 8.486 0 0M2.829 150.621c0.354-1.414 0.707-5.304 1.06-4.95-1.061 8.486-2.829 12.376-3.182 18.74 1.061-5.657-0.354 3.182-0.707 5.304 0.354 2.829 0.354-1.768 1.061-1.06 0.707 1.061-1.414 15.912-0.707 7.779-0.707 7.425 0 15.558 1.414 17.679-1.768 11.315 7.072 36.773 8.84 42.077 0.354 0.354 0-1.768 0.707-0.353 0.707 4.597 3.889 7.779 4.95 12.729 1.061 1.414 5.304 9.193 6.011 10.962 1.414 2.829 2.122 2.475 3.536 5.303 4.243 8.133 10.961 15.912 17.326 23.337 20.508 24.044 51.978 43.845 86.984 50.918 35.006 7.425 71.779 2.122 100.419-11.669 1.768-1.061 1.414-1.414 3.536-2.122 9.901-3.182 21.923-13.436 28.641-17.326 3.182-3.536 11.669-9.547 12.73-13.082 6.011-4.95 12.022-13.083 15.204-18.387 1.768-2.829 3.182-2.829 3.889-4.597-0.354 0 5.657-7.425 7.426-11.668-0.707 0-1.768 2.122-1.768 0 12.729-24.398 19.801-57.282 15.911-79.912 0.707 27.934-6.365 59.05-19.801 78.851-6.011 12.729-18.387 26.519-29.701 36.42-1.768 1.768-3.536 3.889-5.658 5.304-6.718 5.657-14.144 10.254-21.922 14.497-18.387 10.254-38.895 19.094-62.94 19.447 41.37-3.536 78.497-24.398 99.006-49.856-15.558 15.204-22.276 21.215-39.602 30.055-1.414 2.475-13.083 7.425-20.862 9.547 4.597-2.122 14.144-5.657 17.326-8.486-25.812 12.376-54.453 19.448-81.326 15.558 10.254 0 24.751 0.354 38.541-2.121 2.122-0.707 3.182-1.414 5.658-1.768 26.873-6.011 52.685-19.094 71.072-37.481-10.608 9.547-26.519 20.862-36.774 24.398 9.547-5.304 26.873-15.558 32.53-23.337-11.315 11.315-32.53 22.63-45.966 27.58-2.122 0.354 1.414-1.414-2.122 0-4.243 1.061-2.475 1.061-3.536 1.768-16.265 4.597-35.006 8.486-50.563 7.072-2.829-0.354-3.889-1.061-6.365-1.061-2.829-0.354-5.304-0.354-8.486-0.354-12.376-1.414-25.812-6.365-35.713-10.607-5.304-2.475-10.608-4.243-15.912-7.426-4.243-2.475-7.779-5.304-11.314-8.132-13.436-9.901-24.751-19.801-35.36-33.945-19.094-26.519-28.994-59.757-27.58-92.641 1.414-32.884 14.497-65.061 35.359-88.752-1.061 1.061 1.414-2.475 3.536-4.596 0 0.707-0.354 1.768 2.122-0.707 2.122-2.475-0.707-0.707 0.353-2.122 21.923-24.044 60.111-43.492 99.36-44.199 1.414-1.061 3.889-2.475 6.718-1.768 0 0.354-1.768 0.354-1.768 0.354 3.889-0.354 7.425-0.354 9.193 0.353 0.354-0.354-1.414-0.707 0-0.707 2.475 0.707 3.182 0 4.597 0.707-1.061 0-2.122 0-2.829 0.354 8.84 0 14.497 2.122 23.337 2.829-4.597-1.061-5.657-1.061-9.193-2.122 3.889 0.707 5.657 1.414 7.425 1.061-0.707 0-0.354-1.061 0.354-0.707 7.072 1.768 7.779 2.475 15.204 4.95 0.707-0.707-3.182-1.061-4.243-2.122 7.072 2.475 13.436 4.243 17.68 7.072-1.414-1.061-5.657-2.475-8.84-3.889-0.354 0.354 1.061 0.707 1.414 1.414-3.536-1.768-8.486-3.536-13.436-4.243 4.243 1.061 7.072 2.475 8.84 3.182-3.889-0.707-8.84-3.182-14.498-4.243 9.193 2.829 26.519 9.193 37.127 14.851-3.889-2.475-8.486-4.243-10.961-5.657 2.122 0.354 4.597 1.768 4.597 1.06 2.475 1.061 5.657 3.536 7.425 3.89-3.182-2.122-9.547-5.304-11.668-6.365 26.519 12.022 50.21 32.177 65.414 57.989 1.414 2.475 3.536 8.133 5.304 8.84-0.354-1.768-1.768-2.829-3.182-5.657 0.707 0 0.707-1.061 0-2.122-1.414-1.768 0 1.414-1.415-0.354-6.365-11.669-14.144-21.923-26.165-33.237 6.718 6.365 1.768 1.768 0.353-0.354 9.193 8.133 19.801 21.923 24.398 28.995-0.707-1.061-1.061-1.768-0.707-1.768 8.486 14.497 13.79 27.58 19.094 46.32 0.354 0.354 0-1.414 0.707-0.353 3.536 14.851 4.597 27.227 4.243 38.541 2.829-19.094-3.536-48.796-14.851-72.133-1.414-2.829-1.414-0.707-2.829-3.889 0-1.061-1.061-3.182-1.768-4.597-14.144-23.337-31.47-39.956-51.978-53.038 1.414 0.707 4.243 2.829 4.244 2.475-38.188-25.105-82.387-28.641-118.807-20.862-2.475 1.061-3.536 2.122-6.365 3.536 5.304-1.768 8.486-2.122 13.437-3.183 1.061-1.061-4.597 0.354-2.122-0.707 0.354 0.354 4.95-0.707 6.011-0.353 0 0.354-1.414 0.707-1.768 1.06 11.669-2.475 23.691-2.829 33.945-2.121-6.011 0.354-16.972-0.707-20.508 1.061 3.536-0.354 8.486-0.707 11.668-0.354-4.243 0-12.022 0.354-15.558 0.707-0.354-0.354 5.657-1.061 1.768-1.06-1.768 0.354-4.597 0.354-5.657 1.414-30.409 2.829-60.111 18.74-80.973 37.481-4.243 3.536-9.193 7.425-12.375 11.314-7.779 8.84-12.729 17.68-18.387 25.459 3.536-7.425 11.315-18.74 20.508-28.287 9.193-9.547 19.094-17.68 24.398-21.923 0 1.414 8.486-5.304 11.669-7.425-2.122 1.768 1.414-0.707 2.121-0.354 11.315-6.718 20.508-9.193 30.763-13.083-2.475 0.707-4.597 1.414-4.951 1.061 2.475-0.707 3.889-1.414 3.536-1.768-9.901 2.829-25.459 9.547-37.834 16.972 22.276-15.204 50.564-24.398 78.497-24.751 27.934-0.707 55.16 6.365 76.729 17.68 14.497 6.365 28.287 18.033 39.249 29.348 3.182 2.829 0.707-0.707 5.304 4.243-1.414-0.707-2.475-1.414-0.707 0.707 2.829 3.182-0.707-2.475 3.889 3.182-0.354 0-1.768-1.768-1.768-1.061 12.376 10.961 21.923 30.762 27.58 43.846-1.414-5.304-4.95-12.729-7.779-18.033 8.486 15.558 11.315 24.751 14.851 38.541 1.414 1.061-0.707-4.95 0.707-2.121 0.354 2.122 0.707 8.84 2.122 9.9-1.061-6.718-2.829-14.851-4.243-16.265 1.061 0.707-1.768-8.133-3.536-10.254-0.707-5.657-5.657-15.558-9.901-22.984-15.204-29.702-42.431-54.099-72.839-67.536 0-0.707-1.768-1.414-2.476-2.121-30.055-12.729-66.122-16.265-100.773-8.133-35.006 8.486-67.889 28.641-91.227 57.636 1.061-3.536 9.901-10.254 10.255-13.083-10.254 10.961-21.215 25.459-28.641 41.016-7.779 15.558-12.022 31.47-13.79 43.138" fill="#000000" fill-rule="nonzero" stroke="none" stroke-width="1" stroke-linecap="butt" stroke-linejoin="miter" stroke-miterlimit="10" stroke-dasharray="" stroke-dashoffset="0" font-family="none" font-weight="none" font-size="none" text-anchor="none" style="mix-blend-mode: normal" data-fill-palette-color="tertiary"></path></g><g transform="matrix(1,0,0,1,48,90)"><svg viewBox="0 0 224 180" height="180" width="224"><g><svg viewBox="0 0 224 180" height="180" width="224"><g><svg viewBox="0 0 224 180" height="180" width="224"><g><svg viewBox="0 0 224 180" height="180" width="224"><g><svg viewBox="0 0 224 180" height="180" width="224"><g transform="matrix(1,0,0,1,59.202693671404454,53.01176553453951)"><svg viewBox="0 0 105.59461265719109 73.97646893092099" height="73.97646893092099" width="105.59461265719109"><g><svg xmlns="http://www.w3.org/2000/svg" xmlns:xlink="http://www.w3.org/1999/xlink" version="1.1" x="0" y="0" viewBox="5 18.399999618530273 90.06945037841797 63.099998474121094" enable-background="new 0 0 100 100" xml:space="preserve" height="73.97646893092099" width="105.59461265719109" class="icon-o-0" data-fill-palette-color="accent" id="o-0"><path d="M12.9 32c-2.8-0.9-5-3.1-5.8-5.9L5 18.4c0 0 22.2 14 54.1 18.9 2.6 0.4 4.7 2.2 5.5 4.7 2.4 7.9 9.3 24 24.7 19.3 9.3-2.9 4.9 11.3 3.5 15.2-0.1 0.4-0.6 0.4-0.8 0l-1.9-4.7c-0.1-0.1-0.3-0.1-0.4 0.1l-0.3 1.2c-0.7 2.5-2.4 4.5-4.8 5.5l-0.3 0.1-0.1-5.9c0-0.2-0.3-0.3-0.4-0.1L83.1 75c-0.9 2.9-3.3 5-6.2 5.7l0 0 2-8.1c0.1-0.2-0.3-0.4-0.4-0.2l-2.8 4.6c-1.2 2-3.2 3.4-5.5 3.9l-2.6 0.6 4.7-10.3c0.1-0.2-0.2-0.4-0.4-0.3l-4.8 5.2c-1.5 1.6-3.5 2.6-5.6 2.8l-5.4 0.5L65 69.3c0.2-0.2-0.1-0.5-0.3-0.3l-7.1 5.2c-1.6 1.1-3.5 1.7-5.4 1.7l-8.9-0.3 15.2-11.8c0.2-0.2 0-0.5-0.2-0.4l-15.9 6.8c-2.4 1-5.2 0.9-7.5-0.3l-6.6-3.5L52 57.5c0.3-0.1 0.2-0.5-0.1-0.4l-20.8 3.7c-2.3 0.4-4.7-0.2-6.6-1.6L16.2 53 45.9 50c0.5-0.1 0.5-0.8 0-0.9l-29.3-2.7c-3.2-0.3-5.9-2.3-7.2-5.2l-2.3-5.5 30.7 5.1c0.5 0.1 0.7-0.7 0.2-0.8L12.9 32z" fill="#000000" data-fill-palette-color="accent"></path></svg></g></svg></g><path d="M42.4 66.107L40.404 72.588 39.861 72.421 39.858 71.856C39.845 71.47 39.756 71.192 39.592 71.023 39.431 70.848 39.169 70.705 38.807 70.593V70.593L25.692 66.555C25.33 66.444 25.033 66.415 24.801 66.468 24.571 66.516 24.341 66.695 24.113 67.008V67.008L23.792 67.473 23.249 67.305 25.245 60.824 25.788 60.992 25.792 61.556C25.811 61.924 25.9 62.198 26.06 62.38 26.22 62.561 26.481 62.707 26.843 62.819V62.819L39.957 66.857C40.319 66.969 40.617 66.995 40.852 66.935 41.086 66.875 41.314 66.698 41.536 66.405V66.405L41.857 65.94ZM46.235 58.431L44.259 61.676 43.748 61.364 43.897 60.813C43.977 60.465 43.947 60.174 43.809 59.942 43.668 59.7 43.427 59.476 43.086 59.268V59.268L31.606 52.275C31.299 52.088 31.025 51.976 30.784 51.938 30.536 51.896 30.266 51.996 29.971 52.237V52.237L29.44 52.649 28.929 52.337 31.626 47.909 45.627 50.458 36.783 39.443 39.538 34.921 40.049 35.232 39.945 35.671C39.856 36.022 39.875 36.31 40.002 36.535 40.13 36.76 40.347 36.967 40.653 37.153V37.153C41.54 37.717 42.429 38.27 43.321 38.813 44.212 39.356 45.112 39.904 46.02 40.458V40.458L46.974 41.039C47.871 41.585 48.768 42.132 49.665 42.678 50.563 43.224 51.456 43.757 52.347 44.276V44.276C52.67 44.473 52.94 44.587 53.155 44.617 53.374 44.641 53.627 44.539 53.915 44.309V44.309L54.357 43.948 54.868 44.259 51.439 49.888 50.928 49.577 51.072 48.976C51.144 48.615 51.113 48.347 50.978 48.172 50.841 47.987 50.62 47.802 50.313 47.615V47.615L45.28 44.549 39.088 40.719 49.291 53.414 48.497 54.717 32.517 51.814 37.863 54.942 43.62 58.449C43.961 58.657 44.258 58.775 44.512 58.806 44.766 58.836 45.023 58.728 45.282 58.481V58.481L45.724 58.119ZM60.73 38.634L57.582 41.351 57.211 40.92 57.626 40.272C57.844 39.944 57.959 39.63 57.971 39.329 57.984 39.028 57.914 38.693 57.762 38.324V38.324L51.562 22.73 53.268 21.258 67.829 29.78C68.201 29.986 68.522 30.109 68.792 30.147 69.067 30.191 69.397 30.13 69.781 29.965V29.965L70.162 29.781 70.514 30.189 65.29 34.698 64.938 34.29 65.202 33.878C65.416 33.526 65.467 33.219 65.355 32.956 65.237 32.698 65 32.459 64.644 32.239V32.239L61.496 30.332 56.951 34.255 58.323 37.629C58.488 38.014 58.673 38.284 58.878 38.441 59.083 38.597 59.385 38.601 59.782 38.451V38.451L60.359 38.203ZM53.434 25.448L56.64 33.483 60.792 29.899ZM82.838 24.492V24.492C81.159 25.264 79.526 25.587 77.939 25.461 76.345 25.338 74.895 24.794 73.588 23.829 72.277 22.873 71.221 21.522 70.418 19.776V19.776C69.632 18.067 69.293 16.408 69.402 14.799 69.514 13.196 70.069 11.73 71.067 10.4 72.075 9.074 73.508 7.983 75.369 7.127V7.127C76.257 6.719 77.127 6.439 77.98 6.289 78.836 6.129 79.686 6.085 80.532 6.158V6.158L82.252 9.636 81.591 9.94 79.213 8.015C78.833 7.715 78.511 7.515 78.246 7.417 77.982 7.319 77.682 7.296 77.347 7.348V7.348C77.1 7.366 76.871 7.41 76.66 7.477 76.45 7.545 76.19 7.649 75.882 7.791V7.791C74.844 8.269 74.051 8.955 73.504 9.851 72.966 10.749 72.74 11.874 72.827 13.224 72.923 14.578 73.394 16.176 74.241 18.018V18.018C75.519 20.796 76.9 22.598 78.384 23.423 79.872 24.239 81.38 24.296 82.908 23.593V23.593C83.27 23.426 83.559 23.235 83.774 23.019V23.019C84.066 22.826 84.222 22.601 84.243 22.342 84.263 22.084 84.201 21.798 84.057 21.484V21.484C83.745 20.808 83.404 20.072 83.031 19.278 82.652 18.486 82.311 17.761 82.009 17.102V17.102C81.714 16.462 81.198 16.224 80.461 16.387V16.387L79.23 16.646 78.993 16.129 85.806 12.996 86.043 13.513 85.782 13.732C85.512 13.973 85.339 14.224 85.262 14.487 85.185 14.749 85.223 15.046 85.376 15.378V15.378C85.678 16.037 85.984 16.709 86.292 17.394 86.593 18.082 86.903 18.77 87.219 19.459V19.459L87.707 20.519C87.069 21.376 86.365 22.128 85.594 22.775 84.826 23.428 83.908 24 82.838 24.492ZM107.112 17.617L93.833 19.833 93.739 19.272 94.239 18.997C94.545 18.851 94.742 18.657 94.829 18.413 94.916 18.169 94.937 17.849 94.891 17.452V17.452L92.642 3.976C92.56 3.606 92.45 3.328 92.311 3.142 92.172 2.956 91.923 2.836 91.563 2.781V2.781L90.971 2.688 90.878 2.127 103.626 0 104.528 4.257 103.781 4.382 102.306 2.151C102.105 1.834 101.9 1.596 101.691 1.435 101.477 1.282 101.193 1.235 100.839 1.294V1.294L96.285 2.054C96.45 3.166 96.63 4.305 96.825 5.472 97.02 6.639 97.24 7.958 97.485 9.426V9.426L100.14 8.983C100.495 8.924 100.751 8.784 100.909 8.562 101.068 8.34 101.199 8.055 101.303 7.707V7.707L101.586 6.619 102.176 6.52 103.003 11.478 102.413 11.576 101.761 10.634C101.569 10.335 101.365 10.103 101.149 9.937 100.939 9.77 100.657 9.716 100.303 9.775V9.775L97.618 10.223C97.832 11.508 98.017 12.617 98.172 13.548 98.328 14.479 98.472 15.304 98.606 16.023 98.733 16.744 98.854 17.451 98.97 18.146V18.146L104.115 17.288C104.469 17.229 104.729 17.091 104.895 16.874 105.06 16.651 105.176 16.359 105.244 15.997V15.997L105.835 13.422 106.583 13.297ZM120.067 11.552L113.282 11.26 113.331 10.124 120.116 10.416ZM131.767 20.513L125.2 18.706 125.351 18.158 125.801 18.137C126.205 18.096 126.506 17.982 126.702 17.795 126.892 17.606 127.04 17.319 127.146 16.935V16.935C127.44 15.94 127.725 14.943 128 13.943 128.277 12.936 128.555 11.927 128.834 10.914V10.914L129.093 9.972C129.372 8.959 129.645 7.952 129.914 6.95 130.178 5.94 130.45 4.929 130.729 3.916V3.916C130.843 3.499 130.87 3.165 130.808 2.914 130.746 2.662 130.54 2.423 130.189 2.195V2.195L129.812 1.947 129.963 1.399 137.347 3.431C139.437 4.006 140.846 4.811 141.575 5.846 142.304 6.881 142.504 7.995 142.176 9.187V9.187C141.927 10.091 141.373 10.814 140.513 11.356 139.647 11.897 138.344 12.097 136.604 11.956V11.956C138.463 12.695 139.714 13.574 140.357 14.592 140.993 15.615 141.154 16.694 140.842 17.829V17.829C140.689 18.386 140.412 18.917 140.011 19.42 139.612 19.917 139.056 20.323 138.342 20.636 137.624 20.942 136.728 21.102 135.655 21.117 134.582 21.132 133.286 20.931 131.767 20.513ZM134.859 3.563L132.885 10.736 134.116 11.075C135.302 11.401 136.234 11.372 136.913 10.986 137.591 10.6 138.108 9.76 138.465 8.465V8.465C138.833 7.126 138.849 6.116 138.512 5.438 138.167 4.763 137.471 4.282 136.427 3.995V3.995ZM132.676 11.496L130.515 19.351 131.947 19.745C133.261 20.107 134.328 20.052 135.147 19.581 135.971 19.118 136.58 18.169 136.975 16.733V16.733C137.355 15.355 137.311 14.299 136.844 13.563 136.386 12.824 135.449 12.259 134.032 11.869V11.869ZM155.228 31.233L143.898 24.689 144.183 24.197 144.734 24.319C145.125 24.399 145.421 24.378 145.622 24.256 145.817 24.131 146.01 23.905 146.199 23.576V23.576L153.073 11.677C153.255 11.36 153.352 11.086 153.363 10.854 153.369 10.62 153.247 10.358 153 10.069V10.069L152.592 9.637 152.877 9.145 158.705 12.512 158.421 13.004 157.887 12.892C157.525 12.828 157.241 12.86 157.037 12.988 156.824 13.118 156.622 13.347 156.433 13.675V13.675L148.936 26.654 152.39 28.649C152.925 28.959 153.402 29.057 153.82 28.945 154.243 28.837 154.715 28.599 155.234 28.231V28.231L157.234 26.783 157.89 27.162ZM164.564 39.14L159.508 34.621 159.887 34.198 160.401 34.43C160.758 34.58 161.047 34.615 161.269 34.537 161.495 34.463 161.735 34.285 161.988 34.002V34.002L171.132 23.771C171.384 23.488 171.535 23.231 171.583 22.997 171.636 22.768 171.568 22.485 171.38 22.147V22.147L171.091 21.662 171.47 21.238 176.526 25.757 176.147 26.181 175.633 25.948C175.291 25.812 175.004 25.779 174.773 25.848 174.541 25.918 174.299 26.094 174.046 26.376V26.376L164.902 36.607C164.65 36.89 164.502 37.15 164.459 37.388 164.416 37.626 164.481 37.907 164.654 38.231V38.231L164.943 38.717ZM174.979 52.675L170.095 45.845 170.557 45.514 171.368 46.271C171.942 46.8 172.524 46.854 173.114 46.432V46.432L179.149 42.116C180.176 41.382 181.206 40.645 182.239 39.906 183.272 39.168 184.297 38.423 185.312 37.672V37.672L184.065 35.928C183.729 35.457 183.357 35.2 182.95 35.156 182.542 35.113 182.03 35.144 181.411 35.251V35.251L179.23 35.646 178.783 35.022 182.596 32.467 191.662 45.146 188.012 47.927 187.571 47.311 188.645 45.366C188.946 44.816 189.144 44.344 189.238 43.949 189.328 43.55 189.205 43.115 188.868 42.644V42.644L187.604 40.876 175.388 49.612C174.787 50.041 174.648 50.606 174.97 51.308V51.308L175.441 52.344ZM183.992 72.824L179.133 59.821 179.637 59.632 198.501 62.708 196.731 57.972C196.536 57.448 196.25 57.073 195.874 56.844 195.504 56.614 195.044 56.466 194.495 56.401V56.401L192.088 56.087 191.83 55.396 196.119 53.996 200.751 66.392 200.246 66.58 181.383 63.505 183.407 68.923C183.605 69.452 183.892 69.821 184.267 70.028 184.643 70.235 185.111 70.369 185.673 70.429V70.429L188.026 70.742 188.281 71.424ZM29.846 122.536L27.783 115.867 28.345 115.693 28.672 116.176C28.903 116.495 29.138 116.68 29.376 116.731 29.617 116.789 29.925 116.76 30.299 116.644V116.644L43.761 112.48C44.136 112.364 44.406 112.215 44.572 112.031 44.74 111.854 44.829 111.569 44.84 111.176V111.176L44.837 110.592 45.399 110.418 47.462 117.087 46.899 117.261 46.573 116.778C46.348 116.478 46.114 116.297 45.872 116.232 45.629 116.168 45.32 116.194 44.946 116.31V116.31L31.484 120.474C31.109 120.59 30.84 120.743 30.676 120.932 30.512 121.122 30.422 121.404 30.405 121.778V121.778L30.408 122.362ZM34.931 132.898L32.9 129.57 33.428 129.248 33.855 129.642C34.135 129.883 34.415 129.993 34.697 129.969 34.982 129.951 35.297 129.836 35.644 129.625V129.625L47.434 122.431C47.752 122.237 47.986 122.04 48.136 121.839 48.286 121.639 48.318 121.347 48.232 120.963V120.963L48.113 120.288 48.64 119.966 51.414 124.512 42.5 136.095 56.717 133.204 59.548 137.844 59.02 138.166 58.672 137.864C58.398 137.618 58.127 137.5 57.859 137.507 57.591 137.515 57.298 137.616 56.98 137.81V137.81C56.054 138.359 55.134 138.913 54.22 139.47 53.306 140.028 52.381 140.592 51.445 141.163V141.163L50.466 141.761C49.546 142.322 48.627 142.883 47.708 143.444 46.783 144.008 45.872 144.571 44.977 145.133V145.133C44.642 145.337 44.411 145.533 44.283 145.72 44.162 145.903 44.137 146.183 44.211 146.558V146.558L44.335 147.125 43.807 147.447 40.28 141.667 40.808 141.345 41.287 141.765C41.584 141.997 41.846 142.094 42.072 142.057 42.299 142.02 42.571 141.905 42.889 141.711V141.711L48.056 138.558 54.467 134.705 38.073 138.049 37.257 136.712 47.425 123.488 42.051 126.896 36.143 130.5C35.796 130.711 35.546 130.926 35.391 131.145 35.246 131.367 35.225 131.652 35.329 132.001V132.001L35.458 132.576ZM52.16 155.951L48.924 153.168 49.307 152.722 50.017 153.043C50.388 153.213 50.726 153.284 51.03 153.257 51.339 153.224 51.672 153.102 52.028 152.891V152.891L66.916 144.215 68.671 145.723 62.234 161.809C62.081 162.221 62.006 162.568 62.009 162.851 62.011 163.134 62.123 163.458 62.344 163.823V163.823L62.59 164.179 62.226 164.603 56.857 159.987 57.221 159.564 57.667 159.763C58.066 159.931 58.385 159.938 58.623 159.783 58.871 159.628 59.078 159.35 59.246 158.951V158.951L60.708 155.461 56.035 151.443 52.812 153.341C52.447 153.572 52.201 153.802 52.072 154.034 51.943 154.265 51.986 154.573 52.198 154.958V154.958L52.544 155.504ZM64.439 146.53L56.773 151.013 61.046 154.685ZM77.181 172.999V172.999C75.457 172.212 74.11 171.154 73.138 169.826 72.169 168.506 71.62 167.012 71.49 165.345 71.363 163.687 71.71 161.959 72.53 160.163V160.163C73.334 158.403 74.397 157.029 75.719 156.039 77.041 155.05 78.553 154.498 80.257 154.385 81.964 154.28 83.773 154.664 85.684 155.537V155.537C86.597 155.954 87.401 156.442 88.096 157.001 88.788 157.566 89.394 158.2 89.912 158.905V158.905L88.354 162.579 87.665 162.264 87.564 159.126C87.552 158.624 87.494 158.239 87.389 157.972 87.287 157.699 87.105 157.451 86.841 157.228V157.228C86.662 157.044 86.475 156.893 86.281 156.775 86.086 156.657 85.829 156.524 85.508 156.378V156.378C84.444 155.892 83.382 155.736 82.323 155.91 81.261 156.09 80.233 156.669 79.238 157.647 78.249 158.628 77.322 160.065 76.458 161.957V161.957C75.151 164.818 74.678 167.101 75.039 168.808 75.393 170.512 76.356 171.723 77.929 172.442V172.442C78.304 172.613 78.646 172.711 78.956 172.736V172.736C79.302 172.828 79.583 172.796 79.801 172.639 80.019 172.483 80.201 172.244 80.347 171.924V171.924C80.665 171.228 81.004 170.47 81.365 169.648 81.734 168.823 82.074 168.071 82.383 167.394V167.394C82.684 166.735 82.522 166.171 81.895 165.702V165.702L80.869 164.926 81.113 164.391 88.116 167.59 87.871 168.125 87.539 168.061C87.171 168.017 86.859 168.054 86.601 168.17 86.34 168.292 86.134 168.519 85.982 168.852V168.852C85.673 169.529 85.352 170.216 85.019 170.912 84.69 171.616 84.364 172.323 84.041 173.03V173.03L83.543 174.119C82.442 174.193 81.383 174.151 80.366 173.994 79.343 173.833 78.281 173.502 77.181 172.999ZM105.372 180L91.713 177.758 91.808 177.178 92.39 177.081C92.74 177.044 92.996 176.921 93.158 176.712 93.327 176.504 93.455 176.198 93.541 175.795V175.795L95.813 161.949C95.857 161.559 95.841 161.249 95.763 161.021 95.686 160.793 95.483 160.594 95.154 160.426V160.426L94.604 160.144 94.699 159.563 107.807 161.714 107.27 166.153 106.503 166.027 105.808 163.367C105.72 162.995 105.601 162.696 105.45 162.469 105.297 162.249 105.037 162.108 104.67 162.048V162.048L99.986 161.279C99.786 162.412 99.588 163.582 99.389 164.789 99.192 165.99 98.971 167.341 98.724 168.844V168.844L101.45 169.291C101.811 169.35 102.105 169.301 102.333 169.143 102.556 168.977 102.776 168.744 102.994 168.443V168.443L103.637 167.477 104.238 167.576 103.403 172.663 102.802 172.565 102.482 171.441C102.385 171.088 102.261 170.795 102.111 170.562 101.96 170.328 101.701 170.181 101.334 170.121V170.121L98.588 169.67C98.372 170.989 98.185 172.127 98.028 173.085 97.872 174.036 97.736 174.886 97.62 175.635 97.505 176.378 97.388 177.107 97.271 177.822V177.822L102.555 178.689C102.923 178.749 103.224 178.701 103.458 178.544 103.694 178.381 103.906 178.136 104.094 177.81V177.81L105.515 175.496 106.282 175.622ZM120.297 173.416L113.333 173.724 113.282 172.558 120.246 172.251ZM135.279 176.753L128.53 178.612 128.374 178.045 128.769 177.791C129.109 177.546 129.314 177.29 129.385 177.022 129.454 176.748 129.435 176.415 129.327 176.024V176.024C129.064 174.993 128.79 173.962 128.506 172.93 128.222 171.898 127.937 170.863 127.651 169.824V169.824L127.386 168.863C127.098 167.818 126.806 166.782 126.509 165.753 126.22 164.729 125.932 163.695 125.644 162.65V162.65C125.526 162.221 125.372 161.912 125.182 161.723 124.998 161.532 124.691 161.43 124.26 161.418V161.418L123.79 161.403 123.634 160.835 131.22 158.746C133.373 158.153 135.044 158.12 136.23 158.649 137.419 159.183 138.181 160.06 138.516 161.277V161.277C138.774 162.213 138.666 163.146 138.191 164.077 137.71 165.009 136.664 165.87 135.054 166.658V166.658C137.082 166.334 138.646 166.455 139.746 167.021 140.845 167.58 141.555 168.443 141.876 169.61V169.61C142.035 170.186 142.07 170.801 141.981 171.453 141.891 172.105 141.612 172.755 141.142 173.401 140.68 174.052 139.976 174.667 139.032 175.244 138.094 175.82 136.843 176.323 135.279 176.753ZM129.098 160.168L131.129 167.543 132.388 167.196C133.606 166.86 134.415 166.341 134.814 165.638 135.209 164.943 135.224 163.932 134.858 162.606V162.606C134.479 161.227 133.962 160.328 133.309 159.909 132.649 159.49 131.784 159.429 130.713 159.723V159.723ZM131.343 168.321L133.565 176.388 135.046 175.98C136.385 175.611 137.297 175.001 137.78 174.151 138.258 173.309 138.295 172.154 137.891 170.687V170.687C137.501 169.27 136.908 168.358 136.113 167.949 135.318 167.541 134.193 167.537 132.738 167.937V167.937ZM161.996 164.646L150.348 171.375 150.053 170.866 150.452 170.44C150.728 170.134 150.862 169.861 150.854 169.62 150.845 169.379 150.743 169.089 150.547 168.75V168.75L143.483 156.522C143.297 156.2 143.102 155.975 142.897 155.847 142.693 155.72 142.398 155.694 142.013 155.771V155.771L141.418 155.919 141.124 155.409 147.117 151.947 147.411 152.457 147.038 152.868C146.796 153.153 146.68 153.424 146.69 153.68 146.69 153.933 146.788 154.229 146.984 154.569V154.569L154.686 167.901 158.244 165.846C158.791 165.53 159.122 165.159 159.236 164.732 159.353 164.296 159.382 163.749 159.325 163.091V163.091L159.057 160.574 159.739 160.18ZM173.353 155.276L168.141 159.92 167.75 159.481 168.054 158.983C168.248 158.641 168.319 158.351 168.267 158.112 168.219 157.87 168.065 157.602 167.804 157.309V157.309L158.43 146.788C158.169 146.496 157.921 146.312 157.685 146.237 157.454 146.158 157.158 146.195 156.796 146.348V146.348L156.266 146.593 155.875 146.154 161.086 141.51 161.478 141.949 161.174 142.447C160.995 142.776 160.926 143.064 160.968 143.311 161.011 143.559 161.162 143.829 161.423 144.121V144.121L170.797 154.642C171.058 154.935 171.309 155.116 171.55 155.187 171.791 155.257 172.085 155.222 172.432 155.082V155.082L172.962 154.837ZM185.652 139.65L180.62 146.644 180.143 146.301 180.617 145.266C180.936 144.537 180.794 143.956 180.189 143.521V143.521L174.004 139.072C172.946 138.311 171.891 137.552 170.839 136.795 169.781 136.034 168.719 135.279 167.654 134.528V134.528L166.367 136.318C166.017 136.803 165.888 137.251 165.979 137.66 166.075 138.073 166.276 138.562 166.582 139.126V139.126L167.687 141.125 167.233 141.756 163.486 138.888 172.838 125.887 176.748 128.528 176.288 129.168 174.042 128.756C173.409 128.645 172.882 128.609 172.46 128.65 172.043 128.694 171.662 128.956 171.317 129.436V129.436L170.012 131.25 182.536 140.258C183.157 140.705 183.755 140.652 184.332 140.101V140.101L185.174 139.306ZM196.358 116.39L191.333 129.725 190.81 129.528 178.294 114.41 176.466 119.263C176.262 119.804 176.228 120.289 176.365 120.717 176.502 121.145 176.758 121.568 177.134 121.987V121.987L178.781 123.865 178.517 124.565 174.254 122.756 179.047 110.037 179.57 110.234 192.082 125.361 194.178 119.799C194.382 119.258 194.409 118.781 194.258 118.369 194.104 117.949 193.83 117.526 193.436 117.101V117.101L191.831 115.281 192.098 114.571ZM24.305 92.275C24.305 88.384 27.458 85.231 31.348 85.231 35.238 85.231 38.392 88.384 38.392 92.275 38.392 96.165 35.238 99.318 31.348 99.318 27.458 99.318 24.305 96.165 24.305 92.275ZM185.86 92.275C185.86 88.384 189.013 85.231 192.903 85.231 196.793 85.231 199.947 88.384 199.947 92.275 199.947 96.165 196.793 99.318 192.903 99.318 189.013 99.318 185.86 96.165 185.86 92.275Z" fill="#000000" data-fill-palette-color="primary"></path></svg></g></svg></g></svg></g></svg></g></svg></g></svg></g><defs></defs></svg><rect width="320" height="360" fill="none" stroke="none" visibility="hidden"></rect></g></svg></g></svg>
